<svg width="107" height="20" viewBox="0 0 107 20" fill="none" xmlns="http://www.w3.org/2000/svg">
<g id="stars-5 1" clip-path="url(#clip0_702_1038)">
<g id="Trustpilot ratings 5star RGB">
<g id="Group">
<path id="Rectangle path" d="M20 0H0V20H20V0Z" fill="#00B67A"/>
<path id="Rectangle path_2" d="M41.6667 0H21.6667V20H41.6667V0Z" fill="#00B67A"/>
<path id="Rectangle path_3" d="M63.3333 0H43.3333V20H63.3333V0Z" fill="#00B67A"/>
<path id="Rectangle path_4" d="M85 0H65V20H85V0Z" fill="#00B67A"/>
<path id="Rectangle path_5" d="M106.667 0H86.6667V20H106.667V0Z" fill="#00B67A"/>
<path id="Shape" d="M9.99976 13.479L13.0414 12.7082L14.3123 16.6249L9.99976 13.479ZM16.9998 8.41655H11.6456L9.99976 3.37488L8.35392 8.41655H2.99976L7.33309 11.5415L5.68726 16.5832L10.0206 13.4582L12.6873 11.5415L16.9998 8.41655Z" fill="white"/>
<path id="Shape_2" d="M31.6664 13.479L34.708 12.7082L35.9789 16.6249L31.6664 13.479ZM38.6664 8.41655H33.3122L31.6664 3.37488L30.0205 8.41655H24.6664L28.9997 11.5415L27.3539 16.5832L31.6872 13.4582L34.3539 11.5415L38.6664 8.41655Z" fill="white"/>
<path id="Shape_3" d="M53.3331 13.479L56.3747 12.7082L57.6456 16.6249L53.3331 13.479ZM60.3331 8.41655H54.9789L53.3331 3.37488L51.6872 8.41655H46.3331L50.6664 11.5415L49.0206 16.5832L53.3539 13.4582L56.0206 11.5415L60.3331 8.41655Z" fill="white"/>
<path id="Shape_4" d="M74.9998 13.479L78.0414 12.7082L79.3123 16.6249L74.9998 13.479ZM81.9998 8.41655H76.6456L74.9998 3.37488L73.3539 8.41655H67.9998L72.3331 11.5415L70.6873 16.5832L75.0206 13.4582L77.6873 11.5415L81.9998 8.41655Z" fill="white"/>
<path id="Shape_5" d="M96.6664 13.479L99.708 12.7082L100.979 16.6249L96.6664 13.479ZM103.666 8.41655H98.3122L96.6664 3.37488L95.0206 8.41655H89.6664L93.9997 11.5415L92.3539 16.5832L96.6872 13.4582L99.3539 11.5415L103.666 8.41655Z" fill="white"/>
</g>
</g>
</g>
<defs>
<clipPath id="clip0_702_1038">
<rect width="106.667" height="20" fill="white"/>
</clipPath>
</defs>
</svg>
