<svg width="71" height="20" viewBox="0 0 71 20" fill="none" xmlns="http://www.w3.org/2000/svg">
<path fill-rule="evenodd" clip-rule="evenodd" d="M10.6667 17C14.5326 17 17.6667 13.866 17.6667 10C17.6667 6.13401 14.5326 3 10.6667 3C6.80066 3 3.66666 6.13401 3.66666 10C3.66666 13.866 6.80066 17 10.6667 17ZM13.9104 8.86872C14.2521 8.52701 14.2521 7.97299 13.9104 7.63128C13.5687 7.28957 13.0146 7.28957 12.6729 7.63128L9.79166 10.5126L8.66037 9.38128C8.31867 9.03957 7.76465 9.03957 7.42294 9.38128C7.08123 9.72299 7.08123 10.277 7.42294 10.6187L9.17294 12.3687C9.51465 12.7104 10.0687 12.7104 10.4104 12.3687L13.9104 8.86872Z" fill="#6B7280"/>
<path d="M22.5967 4.032H24.4307L26.9507 11.914L29.5267 4.032H31.3047L27.8887 14H25.9427L22.5967 4.032ZM37.7676 11.746C37.5856 12.53 37.1936 13.146 36.6056 13.58C36.0176 14.028 35.3036 14.238 34.4916 14.238C33.3996 14.238 32.5316 13.888 31.8876 13.188C31.2436 12.488 30.9356 11.578 30.9356 10.472C30.9356 9.352 31.2576 8.414 31.9156 7.672C32.5736 6.944 33.4136 6.566 34.4356 6.566C35.4856 6.566 36.3256 6.93 36.9416 7.658C37.5576 8.386 37.8656 9.366 37.8656 10.612V10.78H32.5316C32.5456 11.508 32.7276 12.082 33.0776 12.474C33.4136 12.866 33.9036 13.062 34.5196 13.062C34.9536 13.062 35.3036 12.964 35.5836 12.754C35.8636 12.544 36.0736 12.208 36.2416 11.746H37.7676ZM36.2696 9.716C36.2136 9.114 36.0316 8.638 35.6956 8.288C35.3596 7.938 34.9396 7.756 34.4216 7.756C33.8896 7.756 33.4696 7.924 33.1476 8.26C32.8256 8.596 32.6296 9.086 32.5596 9.716H36.2696ZM43.1669 6.636V8.162C42.8869 8.134 42.6909 8.12 42.6069 8.12C41.2069 8.12 40.5209 9.03 40.5209 10.822V14H38.9389V6.776H40.4369V8.218C40.9409 7.154 41.7529 6.608 42.8589 6.608L43.1669 6.636ZM45.6388 3.99V5.558H44.0428V3.99H45.6388ZM45.6388 6.776V14H44.0428V6.776H45.6388ZM51.8298 5.516V4.004H53.4258V5.516H51.8298ZM46.6638 7.952V6.762H47.8538V6.16C47.8538 5.32 48.0218 4.76 48.3858 4.452C48.7498 4.158 49.2398 4.004 49.8558 4.004C50.3738 4.004 50.7518 4.046 50.9758 4.102V5.348C50.7518 5.292 50.5138 5.264 50.2338 5.264C49.7018 5.264 49.4498 5.516 49.4498 6.02V6.762H50.8078V7.952H49.4498V14H47.8538V7.952H46.6638ZM51.8298 14V6.762H53.4258V14H51.8298ZM61.625 11.746C61.443 12.53 61.051 13.146 60.463 13.58C59.875 14.028 59.161 14.238 58.349 14.238C57.257 14.238 56.389 13.888 55.745 13.188C55.101 12.488 54.793 11.578 54.793 10.472C54.793 9.352 55.115 8.414 55.773 7.672C56.431 6.944 57.271 6.566 58.293 6.566C59.343 6.566 60.183 6.93 60.799 7.658C61.415 8.386 61.723 9.366 61.723 10.612V10.78H56.389C56.403 11.508 56.585 12.082 56.935 12.474C57.271 12.866 57.761 13.062 58.377 13.062C58.811 13.062 59.161 12.964 59.441 12.754C59.721 12.544 59.931 12.208 60.099 11.746H61.625ZM60.127 9.716C60.071 9.114 59.889 8.638 59.553 8.288C59.217 7.938 58.797 7.756 58.279 7.756C57.747 7.756 57.327 7.924 57.005 8.26C56.683 8.596 56.487 9.086 56.417 9.716H60.127ZM69.7823 4.032V14H68.2843V13.006C67.8223 13.804 67.0523 14.196 65.9743 14.196C64.9523 14.196 64.1403 13.86 63.5383 13.16C62.9363 12.474 62.6423 11.55 62.6423 10.374C62.6423 9.226 62.9363 8.302 63.5243 7.616C64.1123 6.93 64.9103 6.58 65.9183 6.58C66.9263 6.58 67.6963 6.958 68.2143 7.714V4.032H69.7823ZM66.2123 7.868C65.5963 7.868 65.1203 8.092 64.7703 8.54C64.4203 8.988 64.2523 9.59 64.2523 10.346C64.2523 11.144 64.4203 11.774 64.7843 12.222C65.1483 12.684 65.6383 12.908 66.2683 12.908C66.8843 12.908 67.3743 12.684 67.7243 12.236C68.0743 11.788 68.2563 11.172 68.2563 10.374C68.2563 9.59 68.0743 8.974 67.7103 8.526C67.3463 8.092 66.8563 7.868 66.2123 7.868Z" fill="#6B7280"/>
</svg>
