<svg width="52" height="52" viewBox="0 0 52 52" fill="none" xmlns="http://www.w3.org/2000/svg">
<g id="LOGOS">
<g id="Group">
<path id="Vector" d="M26.0029 51.4638C40.0662 51.4638 51.4668 40.0633 51.4668 26C51.4668 11.9367 40.0662 0.536133 26.0029 0.536133C11.9396 0.536133 0.539062 11.9367 0.539062 26C0.539062 40.0633 11.9396 51.4638 26.0029 51.4638Z" fill="#111827"/>
<g id="Group_2">
<g id="Group_3">
<path id="Vector_2" d="M33.0305 19.5277V22.7531H23.0312V21.87L24.8889 21.6169V9.04387L23.0312 8.76387V7.90771H28.2059V8.76387L26.1166 9.04387V21.7569H31.9374L32.1689 19.5277H33.0305Z" fill="white"/>
<path id="Vector_3" d="M45.5332 17.1153C45.5332 20.4538 43.724 23.033 39.8955 23.033C36.0455 23.033 34.2578 20.4592 34.2578 17.1153C34.2578 13.7499 36.0455 11.2461 39.8955 11.2461C43.7455 11.2461 45.5332 13.7499 45.5332 17.1153ZM44.3486 17.1153C44.3486 15.9092 44.0955 12.3822 39.8955 12.3822C35.6255 12.3822 35.464 15.9092 35.464 17.1153C35.464 18.273 35.6255 21.8484 39.8955 21.8484C44.0955 21.8484 44.3486 18.273 44.3486 17.1153Z" fill="white"/>
</g>
<g id="Group_4">
<path id="Vector_4" d="M20.3107 31.4008C20.3107 32.5369 20.3107 38.4062 20.3107 38.4062L22.4914 38.6377V39.5423H17.1553V38.6377L19.0561 38.4062V32.0739C19.0561 29.7746 18.103 29.08 15.8791 29.29C13.9084 29.4731 12.0291 31.1208 12.0291 31.1208V38.4277L13.9084 38.6592V39.5423H8.59375V38.6592L10.753 38.4277V29.3816L8.59375 29.1716V28.3154H12.0291V30.1462C12.0291 30.1462 14.0699 28.0354 16.6222 28.0354C18.4099 28.0354 20.3107 28.7085 20.3107 31.4008Z" fill="white"/>
<path id="Vector_5" d="M32.8656 34.2546H24.4871C24.4871 36.1554 25.2302 38.7346 28.7571 38.7346C30.5179 38.7346 32.1225 37.9216 32.1225 37.9216L32.5856 38.6862C32.5856 38.7077 30.6579 39.8223 28.5256 39.8223C25.4617 39.8223 23.2109 37.5716 23.2109 33.8131C23.2109 30.1462 25.4617 28.0354 28.294 28.0354C30.7979 28.0354 32.9356 29.7962 32.9356 33.3931C32.9302 33.8616 32.8656 34.2546 32.8656 34.2546ZM24.5086 33.2585H31.7725C31.794 31.4708 31.1479 29.15 28.2671 29.15C25.5532 29.15 24.5086 31.4223 24.5086 33.2585Z" fill="white"/>
<path id="Vector_6" d="M40.0788 39.4992C40.0788 39.4992 39.0557 39.8492 38.0381 39.8492C36.1104 39.8492 35.6042 38.8261 35.6042 36.5753V29.3115H33.7734V28.3153H35.6042L36.0673 25.4399H36.8534V28.3153H39.8473V29.3115H36.8534V36.5753C36.8534 38.223 36.9934 38.6646 38.1996 38.7776C38.9211 38.8476 39.4273 38.7076 39.9173 38.6161L40.0788 39.4992Z" fill="white"/>
</g>
</g>
</g>
</g>
</svg>
