<svg width="136" height="47" viewBox="0 0 136 47" fill="none" xmlns="http://www.w3.org/2000/svg">
<path d="M24.075 46.9921C37.0493 46.9921 47.567 36.4743 47.567 23.5001C47.567 10.5258 37.0493 0.00805664 24.075 0.00805664C11.1007 0.00805664 0.583008 10.5258 0.583008 23.5001C0.583008 36.4743 11.1007 46.9921 24.075 46.9921Z" fill="#CE1369"/>
<path d="M30.5571 17.5291V20.5041H21.3311V19.6921L23.0461 19.4541V7.85505L21.3311 7.59605V6.80505H26.1051V7.59605L24.1801 7.85505V19.5871H29.5491L29.7661 17.5291H30.5571Z" fill="white"/>
<path d="M42.0929 15.303C42.0929 18.383 40.4269 20.763 36.8919 20.763C33.3359 20.763 31.6909 18.39 31.6909 15.303C31.6909 12.202 33.3359 9.88501 36.8919 9.88501C40.4479 9.88501 42.0929 12.202 42.0929 15.303ZM41.0009 15.303C41.0009 14.19 40.7629 10.935 36.8919 10.935C32.9509 10.935 32.8039 14.19 32.8039 15.303C32.8039 16.374 32.9509 19.671 36.8919 19.671C40.7629 19.671 41.0009 16.374 41.0009 15.303Z" fill="white"/>
<path d="M18.8251 28.4841C18.8251 29.5341 18.8251 34.9451 18.8251 34.9451L20.8341 35.1621V35.9951H15.9131V35.1621L17.6701 34.9451V29.1001C17.6701 26.9791 16.7951 26.3421 14.7371 26.5311C12.9171 26.6991 11.1811 28.2251 11.1811 28.2251V34.9661L12.9171 35.1831V35.9951H8.01709V35.1831L10.0051 34.9661V26.6221L8.01709 26.4261V25.6351H11.1881V27.3291C11.1881 27.3291 13.0711 25.3831 15.4231 25.3831C17.0681 25.3831 18.8251 25.9991 18.8251 28.4841Z" fill="white"/>
<path d="M30.403 31.1161H22.675C22.675 32.8731 23.361 35.2461 26.616 35.2461C28.24 35.2461 29.717 34.4971 29.717 34.4971L30.144 35.2041C30.144 35.2251 28.366 36.2541 26.399 36.2541C23.571 36.2541 21.499 34.1751 21.499 30.7101C21.499 27.3291 23.578 25.3831 26.189 25.3831C28.499 25.3831 30.473 27.0071 30.473 30.3251C30.466 30.7521 30.403 31.1161 30.403 31.1161ZM22.696 30.1991H29.395C29.416 28.5541 28.814 26.4121 26.161 26.4121C23.662 26.4051 22.696 28.5051 22.696 30.1991Z" fill="white"/>
<path d="M37.0603 35.953C37.0603 35.953 36.1153 36.275 35.1773 36.275C33.3993 36.275 32.9303 35.33 32.9303 33.258V26.559H31.2363V25.642H32.9303L33.3573 22.989H34.0853V25.642H36.8503V26.559H34.0923V33.258C34.0923 34.777 34.2183 35.183 35.3313 35.288C35.9963 35.351 36.4653 35.225 36.9133 35.141L37.0603 35.953Z" fill="white"/>
<path d="M60.076 35.1691V35.9811H57.185V34.2451H57.143C57.143 34.2451 55.918 36.2401 53.027 36.2401C51.074 36.2401 49.751 35.2531 49.751 33.4961C49.751 31.0741 52.411 30.2411 54.616 30.2411C55.449 30.2411 56.394 30.3461 57.143 30.5211C57.143 28.3161 57.101 27.7141 56.562 27.0911C55.876 26.3211 54.658 26.2581 53.972 26.2581C52.684 26.2581 51.466 26.5591 51.466 26.5591L51.249 28.2951H50.395V25.9571C51.424 25.6141 52.838 25.3551 53.741 25.3551C57.857 25.3551 58.347 27.6511 58.347 29.2331V34.9521L60.076 35.1691ZM57.115 31.2491C56.387 31.1231 55.526 31.0321 54.735 31.0321C52.894 31.0321 50.857 31.5011 50.857 33.2371C50.857 34.7351 51.886 35.2321 53.363 35.2321C55.89 35.2321 57.115 33.1321 57.115 33.1321V31.2491Z" fill="white"/>
<path d="M68.7069 35.5401C68.7069 35.5401 67.2299 36.2471 65.5359 36.2471C61.9799 36.2471 60.5029 33.8671 60.5029 30.7801C60.5029 27.6721 61.9799 25.3551 65.5359 25.3551C66.7119 25.3551 67.7829 25.6351 68.7069 25.9781V28.9601H67.9369L67.6149 26.7341C67.6149 26.7341 66.7609 26.3281 65.6199 26.3281C62.4699 26.3281 61.6579 28.5541 61.6579 30.7871C61.6579 32.9711 62.5399 35.1831 65.4939 35.3091C66.8029 35.3721 68.3849 34.7491 68.3849 34.7491L68.7069 35.5401Z" fill="white"/>
<path d="M80.4109 35.1691V35.9811H77.5199V34.2451H77.4779C77.4779 34.2451 76.2529 36.2401 73.3619 36.2401C71.4089 36.2401 70.0859 35.2531 70.0859 33.4961C70.0859 31.0741 72.7459 30.2411 74.9509 30.2411C75.7839 30.2411 76.7289 30.3461 77.4779 30.5211C77.4779 28.3161 77.4359 27.7141 76.8969 27.0911C76.2109 26.3211 74.9929 26.2581 74.3069 26.2581C73.0189 26.2581 71.8009 26.5591 71.8009 26.5591L71.5839 28.2951H70.7299V25.9571C71.7589 25.6141 73.1729 25.3551 74.0759 25.3551C78.1919 25.3551 78.6819 27.6511 78.6819 29.2331V34.9521L80.4109 35.1691ZM77.4499 31.2491C76.7219 31.1231 75.8609 31.0321 75.0699 31.0321C73.2289 31.0321 71.1919 31.5011 71.1919 33.2371C71.1919 34.7351 72.2209 35.2321 73.6979 35.2321C76.2249 35.2321 77.4499 33.1321 77.4499 33.1321V31.2491Z" fill="white"/>
<path d="M92.2622 35.1691V35.9811H89.3292V34.4201C89.3292 34.4201 87.8732 36.2401 85.2762 36.2401C82.9592 36.2401 80.9502 34.6091 80.9502 30.8151C80.9502 27.1961 82.8332 25.3481 85.1922 25.3481C87.7402 25.3481 89.3292 26.9791 89.3292 26.9791V22.4571L87.5512 22.2401V21.4281H90.4632V34.9521L92.2622 35.1691ZM89.3222 28.0151C89.0212 27.5671 87.5652 26.3841 85.8082 26.3841C83.4282 26.3841 82.1192 27.9451 82.1192 30.8431C82.1192 33.7341 83.2322 35.1901 85.6122 35.1901C87.8172 35.1901 89.3222 33.0691 89.3222 33.0691V28.0151Z" fill="white"/>
<path d="M101.88 31.1021H94.1449C94.1449 32.8591 94.8309 35.2391 98.0859 35.2391C99.7169 35.2391 101.194 34.4901 101.194 34.4901L101.621 35.1971C101.621 35.2181 99.8429 36.2471 97.8689 36.2471C95.0409 36.2471 92.9619 34.1681 92.9619 30.6961C92.9619 27.3081 95.0409 25.3621 97.6519 25.3621C99.9689 25.3621 101.936 26.9931 101.936 30.3111C101.943 30.7381 101.88 31.1021 101.88 31.1021ZM94.1659 30.1781H100.872C100.893 28.5261 100.291 26.3841 97.6379 26.3841C95.1319 26.3841 94.1659 28.4841 94.1659 30.1781Z" fill="white"/>
<path d="M124.231 35.1481V35.9811H119.282V35.1481L121.039 34.9311V29.0791C121.039 27.0421 120.29 26.2511 118.127 26.5101C115.789 26.7901 114.27 28.2041 114.27 28.2041V34.9311L116.286 35.1481V35.9811H111.358V35.1481L113.115 34.9311V29.0791C113.115 27.0841 112.233 26.3141 110.182 26.5101C108.362 26.6781 106.626 28.2041 106.626 28.2041V34.9521L108.362 35.1691V35.9811H103.455V35.1691L105.45 34.9521V26.6221L103.455 26.4051V25.6141H106.626V27.3081C106.626 27.3081 108.509 25.3551 110.868 25.3551C112.002 25.3551 113.57 26.0411 114.214 27.3711C114.214 27.3711 116.377 25.3551 118.82 25.3551C120.339 25.3551 122.229 26.1041 122.229 28.1621V34.9311L124.231 35.1481Z" fill="white"/>
<path d="M135.417 25.6141V26.4261L133.723 26.6431L129.012 38.2981C128.452 39.6701 127.724 40.4401 126.352 40.4191C125.708 40.3981 125.127 40.2021 124.679 39.9501L125.001 39.2641C125.302 39.4111 125.792 39.5861 126.31 39.5861C126.975 39.5861 127.682 39.3901 128.088 38.3191L128.991 35.9811H128.795L125.106 26.6361L123.433 26.4191V25.6071H128.06V26.4191L126.219 26.6571L129.152 34.1541L129.369 34.6931H129.495L129.691 34.1541L132.561 26.6571C132.561 26.6571 130.741 26.4401 130.741 26.4191V25.6071H135.417V25.6141Z" fill="white"/>
</svg>
