<svg width="136" height="48" viewBox="0 0 136 48" fill="none" xmlns="http://www.w3.org/2000/svg">
<path d="M24.075 47.4921C37.0493 47.4921 47.567 36.9743 47.567 24.0001C47.567 11.0258 37.0493 0.508057 24.075 0.508057C11.1007 0.508057 0.583008 11.0258 0.583008 24.0001C0.583008 36.9743 11.1007 47.4921 24.075 47.4921Z" fill="black"/>
<path d="M30.5571 18.0292V21.0042H21.3311V20.1922L23.0461 19.9542V8.35518L21.3311 8.09617V7.30518H26.1051V8.09617L24.1801 8.35518V20.0872H29.5491L29.7661 18.0292H30.5571Z" fill="white"/>
<path d="M42.0934 15.8033C42.0934 18.8833 40.4274 21.2633 36.8924 21.2633C33.3364 21.2633 31.6914 18.8903 31.6914 15.8033C31.6914 12.7023 33.3364 10.3853 36.8924 10.3853C40.4484 10.3853 42.0934 12.7023 42.0934 15.8033ZM41.0014 15.8033C41.0014 14.6903 40.7634 11.4353 36.8924 11.4353C32.9514 11.4353 32.8044 14.6903 32.8044 15.8033C32.8044 16.8743 32.9514 20.1713 36.8924 20.1713C40.7634 20.1713 41.0014 16.8743 41.0014 15.8033Z" fill="white"/>
<path d="M18.8246 28.9843C18.8246 30.0343 18.8246 35.4453 18.8246 35.4453L20.8336 35.6623V36.4953H15.9126V35.6623L17.6696 35.4453V29.6003C17.6696 27.4793 16.7946 26.8423 14.7366 27.0313C12.9166 27.1993 11.1806 28.7253 11.1806 28.7253V35.4663L12.9166 35.6833V36.4953H8.0166V35.6833L10.0046 35.4663V27.1223L8.0166 26.9263V26.1353H11.1876V27.8293C11.1876 27.8293 13.0706 25.8833 15.4226 25.8833C17.0676 25.8833 18.8246 26.4993 18.8246 28.9843Z" fill="white"/>
<path d="M30.403 31.6163H22.675C22.675 33.3733 23.361 35.7463 26.616 35.7463C28.24 35.7463 29.717 34.9973 29.717 34.9973L30.144 35.7043C30.144 35.7253 28.366 36.7543 26.399 36.7543C23.571 36.7543 21.499 34.6753 21.499 31.2103C21.499 27.8293 23.578 25.8833 26.189 25.8833C28.499 25.8833 30.473 27.5073 30.473 30.8253C30.466 31.2523 30.403 31.6163 30.403 31.6163ZM22.696 30.6993H29.395C29.416 29.0543 28.814 26.9123 26.161 26.9123C23.662 26.9053 22.696 29.0053 22.696 30.6993Z" fill="white"/>
<path d="M37.0594 36.4533C37.0594 36.4533 36.1144 36.7753 35.1764 36.7753C33.3984 36.7753 32.9294 35.8303 32.9294 33.7583V27.0593H31.2354V26.1423H32.9294L33.3564 23.4893H34.0844V26.1423H36.8494V27.0593H34.0914V33.7583C34.0914 35.2773 34.2174 35.6833 35.3304 35.7883C35.9954 35.8513 36.4644 35.7253 36.9124 35.6413L37.0594 36.4533Z" fill="white"/>
<path d="M60.076 35.669V36.481H57.185V34.745H57.143C57.143 34.745 55.918 36.74 53.027 36.74C51.074 36.74 49.751 35.753 49.751 33.996C49.751 31.574 52.411 30.741 54.616 30.741C55.449 30.741 56.394 30.846 57.143 31.021C57.143 28.816 57.101 28.214 56.562 27.591C55.876 26.821 54.658 26.758 53.972 26.758C52.684 26.758 51.466 27.059 51.466 27.059L51.249 28.795H50.395V26.457C51.424 26.114 52.838 25.855 53.741 25.855C57.857 25.855 58.347 28.151 58.347 29.733V35.452L60.076 35.669ZM57.115 31.749C56.387 31.623 55.526 31.532 54.735 31.532C52.894 31.532 50.857 32.001 50.857 33.737C50.857 35.235 51.886 35.732 53.363 35.732C55.89 35.732 57.115 33.632 57.115 33.632V31.749Z" fill="black"/>
<path d="M68.7069 36.04C68.7069 36.04 67.2299 36.747 65.5359 36.747C61.9799 36.747 60.5029 34.367 60.5029 31.28C60.5029 28.172 61.9799 25.855 65.5359 25.855C66.7119 25.855 67.7829 26.135 68.7069 26.478V29.46H67.9369L67.6149 27.234C67.6149 27.234 66.7609 26.828 65.6199 26.828C62.4699 26.828 61.6579 29.054 61.6579 31.287C61.6579 33.471 62.5399 35.683 65.4939 35.809C66.8029 35.872 68.3849 35.249 68.3849 35.249L68.7069 36.04Z" fill="black"/>
<path d="M80.4109 35.669V36.481H77.5199V34.745H77.4779C77.4779 34.745 76.2529 36.74 73.3619 36.74C71.4089 36.74 70.0859 35.753 70.0859 33.996C70.0859 31.574 72.7459 30.741 74.9509 30.741C75.7839 30.741 76.7289 30.846 77.4779 31.021C77.4779 28.816 77.4359 28.214 76.8969 27.591C76.2109 26.821 74.9929 26.758 74.3069 26.758C73.0189 26.758 71.8009 27.059 71.8009 27.059L71.5839 28.795H70.7299V26.457C71.7589 26.114 73.1729 25.855 74.0759 25.855C78.1919 25.855 78.6819 28.151 78.6819 29.733V35.452L80.4109 35.669ZM77.4499 31.749C76.7219 31.623 75.8609 31.532 75.0699 31.532C73.2289 31.532 71.1919 32.001 71.1919 33.737C71.1919 35.235 72.2209 35.732 73.6979 35.732C76.2249 35.732 77.4499 33.632 77.4499 33.632V31.749Z" fill="black"/>
<path d="M92.2622 35.669V36.481H89.3292V34.92C89.3292 34.92 87.8732 36.74 85.2762 36.74C82.9592 36.74 80.9502 35.109 80.9502 31.315C80.9502 27.696 82.8332 25.848 85.1922 25.848C87.7402 25.848 89.3292 27.479 89.3292 27.479V22.957L87.5512 22.74V21.928H90.4632V35.452L92.2622 35.669ZM89.3222 28.515C89.0212 28.067 87.5652 26.884 85.8082 26.884C83.4282 26.884 82.1192 28.445 82.1192 31.343C82.1192 34.234 83.2322 35.69 85.6122 35.69C87.8172 35.69 89.3222 33.569 89.3222 33.569V28.515Z" fill="black"/>
<path d="M101.88 31.6021H94.1449C94.1449 33.3591 94.8309 35.7391 98.0859 35.7391C99.7169 35.7391 101.194 34.9901 101.194 34.9901L101.621 35.6971C101.621 35.7181 99.8429 36.7471 97.8689 36.7471C95.0409 36.7471 92.9619 34.6681 92.9619 31.1961C92.9619 27.8081 95.0409 25.8621 97.6519 25.8621C99.9689 25.8621 101.936 27.4931 101.936 30.8111C101.943 31.2381 101.88 31.6021 101.88 31.6021ZM94.1659 30.6781H100.872C100.893 29.0261 100.291 26.8841 97.6379 26.8841C95.1319 26.8841 94.1659 28.9841 94.1659 30.6781Z" fill="black"/>
<path d="M124.231 35.648V36.481H119.282V35.648L121.039 35.431V29.579C121.039 27.542 120.29 26.751 118.127 27.01C115.789 27.29 114.27 28.704 114.27 28.704V35.431L116.286 35.648V36.481H111.358V35.648L113.115 35.431V29.579C113.115 27.584 112.233 26.814 110.182 27.01C108.362 27.178 106.626 28.704 106.626 28.704V35.452L108.362 35.669V36.481H103.455V35.669L105.45 35.452V27.122L103.455 26.905V26.114H106.626V27.808C106.626 27.808 108.509 25.855 110.868 25.855C112.002 25.855 113.57 26.541 114.214 27.871C114.214 27.871 116.377 25.855 118.82 25.855C120.339 25.855 122.229 26.604 122.229 28.662V35.431L124.231 35.648Z" fill="black"/>
<path d="M135.417 26.1139V26.9259L133.723 27.1429L129.012 38.7979C128.452 40.1699 127.724 40.9399 126.352 40.9189C125.708 40.8979 125.127 40.7019 124.679 40.4499L125.001 39.7639C125.302 39.9109 125.792 40.0859 126.31 40.0859C126.975 40.0859 127.682 39.8899 128.088 38.8189L128.991 36.4809H128.795L125.106 27.1359L123.433 26.9189V26.1069H128.06V26.9189L126.219 27.1569L129.152 34.6539L129.369 35.1929H129.495L129.691 34.6539L132.561 27.1569C132.561 27.1569 130.741 26.9399 130.741 26.9189V26.1069H135.417V26.1139Z" fill="black"/>
</svg>
