<svg width="226" height="211" viewBox="0 0 226 211" fill="none" xmlns="http://www.w3.org/2000/svg">
<g clip-path="url(#clip0_2166_40857)">
<path d="M206.979 210.894C217.24 210.894 225.557 202.547 225.557 192.25C225.557 181.953 217.24 173.607 206.979 173.607C196.718 173.607 188.4 181.953 188.4 192.25C188.4 202.547 196.718 210.894 206.979 210.894Z" fill="#CE1369"/>
<path d="M104.628 209.907C162.312 209.907 209.074 162.981 209.074 105.094C209.074 47.208 162.312 0.281738 104.628 0.281738C46.9437 0.281738 0.181641 47.208 0.181641 105.094C0.181641 162.981 46.9437 209.907 104.628 209.907Z" fill="#CE1369"/>
<path d="M85.8281 38.7546H52.7543C45.0825 38.7546 38.8633 44.9925 38.8633 52.6872V52.6873C38.8633 60.3821 45.0825 66.6199 52.7543 66.6199H85.8281C93.4999 66.6199 99.7192 60.3821 99.7192 52.6873V52.6872C99.7192 44.9925 93.4999 38.7546 85.8281 38.7546Z" fill="url(#paint0_linear_2166_40857)"/>
<path d="M44.674 71.7883L21.2873 95.2451C15.8625 100.686 15.8625 109.508 21.2873 114.949L21.2873 114.949C26.7121 120.39 35.5074 120.39 40.9322 114.949L64.3189 91.492C69.7437 86.051 69.7437 77.2294 64.3189 71.7884L64.3189 71.7883C58.8941 66.3473 50.0988 66.3473 44.674 71.7883Z" fill="url(#paint1_linear_2166_40857)"/>
<path d="M38.8633 124.336V157.509C38.8633 165.203 45.0825 171.441 52.7543 171.441H52.7543C60.4261 171.441 66.6454 165.203 66.6454 157.509V124.336C66.6454 116.641 60.4261 110.403 52.7543 110.403H52.7543C45.0825 110.403 38.8633 116.641 38.8633 124.336Z" fill="url(#paint2_linear_2166_40857)"/>
<path d="M71.8025 165.616L95.1893 189.073C100.614 194.514 109.409 194.514 114.834 189.073L114.834 189.073C120.259 183.632 120.259 174.811 114.834 169.369L91.4474 145.913C86.0227 140.472 77.2274 140.472 71.8026 145.913L71.8025 145.913C66.3778 151.354 66.3778 160.175 71.8025 165.616Z" fill="url(#paint3_linear_2166_40857)"/>
<path d="M124.197 171.441H157.271C164.943 171.441 171.162 165.203 171.162 157.509V157.509C171.162 149.814 164.943 143.576 157.271 143.576H124.197C116.525 143.576 110.306 149.814 110.306 157.509V157.509C110.306 165.203 116.525 171.441 124.197 171.441Z" fill="url(#paint4_linear_2166_40857)"/>
<path d="M165.349 138.406L188.736 114.949C194.161 109.508 194.161 100.686 188.736 95.2451L188.736 95.245C183.311 89.804 174.516 89.804 169.091 95.245L145.705 118.702C140.28 124.143 140.28 132.964 145.705 138.405L145.705 138.406C151.129 143.847 159.925 143.847 165.349 138.406Z" fill="url(#paint5_linear_2166_40857)"/>
<path d="M171.162 85.8601V52.6873C171.162 44.9925 164.943 38.7546 157.271 38.7546H157.271C149.599 38.7546 143.38 44.9925 143.38 52.6873V85.8601C143.38 93.5549 149.599 99.7927 157.271 99.7927H157.271C164.943 99.7927 171.162 93.5549 171.162 85.8601Z" fill="url(#paint6_linear_2166_40857)"/>
<path d="M138.221 44.5791L114.834 21.1223C109.409 15.6813 100.614 15.6813 95.1893 21.1223L95.1893 21.1224C89.7645 26.5634 89.7645 35.385 95.1892 40.8261L118.576 64.2828C124.001 69.7238 132.796 69.7239 138.221 64.2828L138.221 64.2828C143.646 58.8418 143.646 50.0201 138.221 44.5791Z" fill="url(#paint7_linear_2166_40857)"/>
<path d="M100.312 129V120.872H108.568V129H100.312ZM101.016 116.392C101.016 113.64 101.272 111.4 101.848 109.672C102.424 107.944 103.64 106.216 105.432 104.552C105.56 104.424 106.008 104.04 106.648 103.464C107.288 102.888 107.736 102.504 107.992 102.248C108.184 102.056 108.568 101.672 109.08 101.16C109.592 100.648 109.912 100.2 110.104 99.816C110.296 99.496 110.552 99.048 110.808 98.536C111.064 98.024 111.256 97.448 111.384 96.936C111.512 96.424 111.576 95.848 111.576 95.208C111.576 93.352 110.936 91.816 109.72 90.6C108.44 89.448 106.84 88.808 104.92 88.808C99.928 88.808 97.304 91.88 97.176 97.896H89.816C90.008 93.16 91.416 89.448 93.976 86.696C96.536 83.944 100.184 82.536 105.048 82.536C109.336 82.536 112.792 83.752 115.416 86.056C118.04 88.36 119.384 91.432 119.384 95.208C119.384 96.616 119.192 97.896 118.936 98.984C118.616 100.136 118.104 101.16 117.336 102.12C116.568 103.144 115.864 103.912 115.288 104.488C114.648 105.128 113.688 105.96 112.408 107.048C110.232 108.904 108.952 110.248 108.568 111.08C108.12 111.912 107.928 113.704 107.928 116.392H101.016Z" fill="black"/>
</g>
<defs>
<linearGradient id="paint0_linear_2166_40857" x1="99.7191" y1="52.6872" x2="25.5856" y2="52.6872" gradientUnits="userSpaceOnUse">
<stop stop-color="white"/>
<stop offset="1" stop-color="#CE1369" stop-opacity="0"/>
</linearGradient>
<linearGradient id="paint1_linear_2166_40857" x1="64.3189" y1="71.7878" x2="11.7416" y2="124.208" gradientUnits="userSpaceOnUse">
<stop stop-color="white"/>
<stop offset="1" stop-color="#CE1369" stop-opacity="0"/>
</linearGradient>
<linearGradient id="paint2_linear_2166_40857" x1="52.7545" y1="110.403" x2="52.7545" y2="184.759" gradientUnits="userSpaceOnUse">
<stop stop-color="white"/>
<stop offset="1" stop-color="#CE1369" stop-opacity="0"/>
</linearGradient>
<linearGradient id="paint3_linear_2166_40857" x1="71.8027" y1="145.913" x2="124.379" y2="198.332" gradientUnits="userSpaceOnUse">
<stop stop-color="white"/>
<stop offset="1" stop-color="#CE1369" stop-opacity="0"/>
</linearGradient>
<linearGradient id="paint4_linear_2166_40857" x1="110.306" y1="157.508" x2="184.44" y2="157.508" gradientUnits="userSpaceOnUse">
<stop stop-color="white"/>
<stop offset="1" stop-color="#CE1369" stop-opacity="0"/>
</linearGradient>
<linearGradient id="paint5_linear_2166_40857" x1="145.705" y1="138.406" x2="198.282" y2="85.9859" gradientUnits="userSpaceOnUse">
<stop stop-color="white"/>
<stop offset="1" stop-color="#CE1369" stop-opacity="0"/>
</linearGradient>
<linearGradient id="paint6_linear_2166_40857" x1="157.271" y1="99.7927" x2="157.271" y2="25.437" gradientUnits="userSpaceOnUse">
<stop stop-color="white"/>
<stop offset="1" stop-color="#CE1369" stop-opacity="0"/>
</linearGradient>
<linearGradient id="paint7_linear_2166_40857" x1="138.221" y1="64.2828" x2="85.6441" y2="11.863" gradientUnits="userSpaceOnUse">
<stop stop-color="white"/>
<stop offset="1" stop-color="#CE1369" stop-opacity="0"/>
</linearGradient>
<clipPath id="clip0_2166_40857">
<rect width="226" height="211" fill="white"/>
</clipPath>
</defs>
</svg>
