<svg width="28" height="28" viewBox="0 0 28 28" fill="none" xmlns="http://www.w3.org/2000/svg">
<path d="M14.0002 2.33325C12.2106 2.33317 10.445 2.74478 8.83998 3.53624C7.23493 4.32769 5.83348 5.47778 4.74403 6.89751C3.65458 8.31725 2.90634 9.96859 2.5572 11.7238C2.20806 13.4789 2.26737 15.2909 2.73055 17.0195C3.19373 18.7481 4.04836 20.347 5.22833 21.6924C6.40829 23.0379 7.88196 24.0938 9.53533 24.7786C11.1887 25.4634 12.9774 25.7587 14.7632 25.6416C16.5489 25.5245 18.2838 24.9981 19.8335 24.1033C19.9729 24.0303 20.0962 23.9299 20.1958 23.8081C20.2954 23.6863 20.3694 23.5457 20.4132 23.3945C20.457 23.2434 20.4699 23.085 20.4509 22.9288C20.4319 22.7726 20.3815 22.6219 20.3028 22.4856C20.2241 22.3494 20.1186 22.2305 19.9927 22.1361C19.8668 22.0417 19.7231 21.9738 19.5703 21.9363C19.4175 21.8989 19.2587 21.8927 19.1034 21.9183C18.9481 21.9438 18.7996 22.0005 18.6669 22.0849C16.8876 23.1122 14.8191 23.5236 12.7822 23.2555C10.7453 22.9874 8.85372 22.0547 7.4009 20.602C5.94807 19.1494 5.01514 17.2579 4.74681 15.221C4.47847 13.1841 4.88971 11.1156 5.91676 9.33626C6.94381 7.55689 8.52927 6.16613 10.4273 5.37964C12.3253 4.59315 14.4297 4.45489 16.4143 4.9863C18.3989 5.51771 20.1527 6.68909 21.4037 8.31879C22.6547 9.94848 23.3331 11.9454 23.3335 13.9999V14.8749C23.3335 15.4164 23.1184 15.9357 22.7355 16.3186C22.3526 16.7015 21.8333 16.9166 21.2919 16.9166C20.7504 16.9166 20.2311 16.7015 19.8482 16.3186C19.4653 15.9357 19.2502 15.4164 19.2502 14.8749V9.91658C19.2502 9.60717 19.1273 9.31042 18.9085 9.09163C18.6897 8.87284 18.3929 8.74992 18.0835 8.74992C17.8122 8.74388 17.5473 8.83261 17.3344 9.00083C17.1214 9.16906 16.9738 9.40625 16.9169 9.67159C16.0593 9.07843 15.0429 8.75726 14.0002 8.74992C13.1219 8.73941 12.255 8.94945 11.4789 9.36078C10.7028 9.77211 10.0423 10.3716 9.55788 11.1043C9.07349 11.8371 8.78068 12.6796 8.70627 13.5548C8.63187 14.43 8.77825 15.3099 9.132 16.1139C9.48575 16.9179 10.0356 17.6203 10.7311 18.1567C11.4266 18.6932 12.2456 19.0465 13.1131 19.1844C13.9806 19.3223 14.8688 19.2404 15.6964 18.9461C16.524 18.6518 17.2645 18.1546 17.8502 17.4999C18.4045 18.2178 19.1688 18.7451 20.0367 19.0084C20.9046 19.2718 21.833 19.2582 22.6928 18.9694C23.5526 18.6807 24.301 18.1312 24.8341 17.3974C25.3671 16.6636 25.6582 15.7819 25.6669 14.8749V13.9999C25.6669 12.4678 25.3651 10.9507 24.7788 9.53528C24.1925 8.11981 23.3331 6.83369 22.2498 5.75034C21.1664 4.66699 19.8803 3.80763 18.4648 3.22132C17.0494 2.63502 15.5323 2.33325 14.0002 2.33325ZM14.0002 16.9166C13.4233 16.9166 12.8594 16.7455 12.3798 16.425C11.9001 16.1046 11.5263 15.649 11.3055 15.1161C11.0848 14.5831 11.027 13.9967 11.1396 13.4309C11.2521 12.8651 11.5299 12.3454 11.9378 11.9375C12.3457 11.5296 12.8654 11.2518 13.4312 11.1393C13.997 11.0268 14.5834 11.0845 15.1163 11.3053C15.6493 11.526 16.1048 11.8999 16.4253 12.3795C16.7458 12.8591 16.9169 13.4231 16.9169 13.9999C16.9169 14.7735 16.6096 15.5153 16.0626 16.0623C15.5156 16.6093 14.7737 16.9166 14.0002 16.9166Z" fill="#374151"/>
</svg>
