<svg width="28" height="28" viewBox="0 0 28 28" fill="none" xmlns="http://www.w3.org/2000/svg">
<g id="Media / Icon">
<path id="Vector" d="M22.1668 4.66675H5.8335C4.90524 4.66675 4.015 5.0355 3.35862 5.69187C2.70225 6.34825 2.3335 7.23849 2.3335 8.16675V19.8334C2.3335 20.7617 2.70225 21.6519 3.35862 22.3083C4.015 22.9647 4.90524 23.3334 5.8335 23.3334H22.1668C23.0951 23.3334 23.9853 22.9647 24.6417 22.3083C25.2981 21.6519 25.6668 20.7617 25.6668 19.8334V8.16675C25.6668 7.23849 25.2981 6.34825 24.6417 5.69187C23.9853 5.0355 23.0951 4.66675 22.1668 4.66675ZM21.6885 7.00008L14.8285 13.8601C14.72 13.9694 14.591 14.0562 14.4488 14.1155C14.3067 14.1747 14.1542 14.2052 14.0002 14.2052C13.8461 14.2052 13.6937 14.1747 13.5515 14.1155C13.4093 14.0562 13.2803 13.9694 13.1718 13.8601L6.31183 7.00008H21.6885ZM23.3335 19.8334C23.3335 20.1428 23.2106 20.4396 22.9918 20.6584C22.773 20.8772 22.4762 21.0001 22.1668 21.0001H5.8335C5.52408 21.0001 5.22733 20.8772 5.00854 20.6584C4.78975 20.4396 4.66683 20.1428 4.66683 19.8334V8.64508L11.5268 15.5051C12.1831 16.1605 13.0727 16.5287 14.0002 16.5287C14.9277 16.5287 15.8172 16.1605 16.4735 15.5051L23.3335 8.64508V19.8334Z" fill="#374151"/>
</g>
</svg>
